<svg width="30" height="30" fill="none" xmlns="http://www.w3.org/2000/svg"><path d="M15 2.808a12.5 12.5 0 00-3.953 24.36c.625.11.86-.266.86-.594 0-.297-.016-1.281-.016-2.328-3.141.578-3.953-.766-4.203-1.469a4.545 4.545 0 00-1.282-1.765c-.437-.235-1.062-.813-.015-.829a2.502 2.502 0 011.922 1.282 2.672 2.672 0 003.64 1.03 2.63 2.63 0 01.797-1.671c-2.781-.313-5.687-1.39-5.687-6.172a4.865 4.865 0 011.28-3.36A4.492 4.492 0 018.47 7.98s1.047-.328 3.437 1.282a11.784 11.784 0 016.25 0c2.39-1.625 3.438-1.282 3.438-1.282a4.492 4.492 0 01.125 3.313 4.836 4.836 0 011.28 3.36c0 4.796-2.922 5.859-5.703 6.171a2.961 2.961 0 01.844 2.313c0 1.671-.016 3.015-.016 3.437 0 .328.234.719.86.594A12.507 12.507 0 0015 2.808z" fill="#707294"/></svg>